Coordinates
version=1
nRows=5
nColumns=63
inDegrees=yes

Units are S.I. units (second, meters, Newtons, ...)
If the header above contains a line with 'inDegrees', this indicates whether rotational values are in degrees (yes) or radians (no).

endheader
time	pelvis_tilt	pelvis_list	pelvis_rotation	pelvis_tx	pelvis_ty	pelvis_tz	hip_flexion_r	hip_adduction_r	hip_rotation_r	knee_angle_r	knee_angle_r_beta	ankle_angle_r	subtalar_angle_r	mtp_angle_r	hip_flexion_l	hip_adduction_l	hip_rotation_l	knee_angle_l	knee_angle_l_beta	ankle_angle_l	subtalar_angle_l	mtp_angle_l	L5_S1_Flex_Ext	L5_S1_Lat_Bending	L5_S1_axial_rotation	L4_L5_Flex_Ext	L4_L5_Lat_Bending	L4_L5_axial_rotation	L3_L4_Flex_Ext	L3_L4_Lat_Bending	L3_L4_axial_rotation	L2_L3_Flex_Ext	L2_L3_Lat_Bending	L2_L3_axial_rotation	L1_L2_Flex_Ext	L1_L2_Lat_Bending	L1_L2_axial_rotation	L1_T12_Flex_Ext	L1_T12_Lat_Bending	L1_T12_axial_rotation	Abs_r3	Abs_r2	Abs_r1	Abs_t1	Abs_t2	neck_flexion	neck_bending	neck_rotation	arm_flex_r	arm_add_r	arm_rot_r	elbow_flex_r	pro_sup_r	wrist_flex_r	wrist_dev_r	arm_flex_l	arm_add_l	arm_rot_l	elbow_flex_l	pro_sup_l	wrist_flex_l	wrist_dev_l
      0.00000000	      0.61226034	     -4.83060240	    101.28660429	      0.27253182	      0.73165102	      0.88480087	      0.57175731	      1.85758320	    -12.07417282	      4.35713662	      0.07604638	     17.16670669	     11.58059352	      0.00000000	      0.80345033	     -0.80064975	      6.06500096	      3.45534191	      0.06030709	     17.01940941	     -5.09654381	      0.00000000	      0.15382589	      0.07675404	     -0.53653461	      0.28567006	      0.10208288	     -0.57006802	      0.25272055	      0.18661978	     -0.57006802	      0.17580761	      0.18661978	     -0.46946778	      0.14284272	      0.15651685	     -0.43593437	      0.08789611	      0.11889201	     -0.40240096	      1.09876295	      0.86825709	     -2.98404453	      0.00000000	      0.00000000	     25.44339409	     -1.13000474	     -2.41941431	     15.29984247	    -10.94763878	     72.99794105	     49.82681014	     88.96557254	     -1.46444379	     -4.28658369	      4.40452542	    -13.20631421	     52.24922706	     55.37205679	     79.56464416	     -6.04969388	     -0.47716845
      0.01666667	      0.54646183	     -4.76831525	    102.25454527	      0.27020515	      0.73140976	      0.88594258	      0.37808476	      1.56284519	    -14.01405874	      4.66464961	      0.08141349	     17.29007457	     13.06207160	      0.00000000	      1.06421218	     -0.67549667	      6.90405436	      3.83960129	      0.06701368	     17.16419247	     -4.83460447	      0.00000000	      0.17394899	      0.09584942	     -0.78469127	      0.32304067	      0.12747973	     -0.83373448	      0.28578079	      0.23304828	     -0.83373448	      0.19880630	      0.23304828	     -0.68660486	      0.16152903	      0.19545614	     -0.63756166	      0.09939445	      0.14847075	     -0.58851845	      1.24250022	      1.08426781	     -4.36421745	      0.00000000	      0.00000000	     24.85999021	     -0.32010735	     -0.25481552	     14.93912184	    -10.92852148	     72.20778337	     49.72551600	     88.75797350	      0.21938063	     -2.75887531	      6.20002465	    -13.47501759	     56.48798756	     54.69680365	     71.71201762	     -8.21673780	     -0.68298381
      0.03333333	      0.45125170	     -4.73622498	    103.06310861	      0.26855137	      0.73125230	      0.88663214	      0.17707847	      1.32498503	    -15.30332191	      4.80955011	      0.08394249	     17.37494697	     13.85881563	      0.00000000	      1.27786477	     -0.55097806	      7.45557537	      4.15896898	      0.07258770	     17.32285898	     -4.37917111	      0.00000000	      0.18997084	      0.09948258	     -0.98761274	      0.35279485	      0.13231184	     -1.04933854	      0.31210309	      0.24188195	     -1.04933854	      0.21711767	      0.24188195	     -0.86416115	      0.17640692	      0.20286488	     -0.80243536	      0.10854934	      0.15409852	     -0.74070956	      1.35694271	      1.12536688	     -5.49280580	      0.00000000	      0.00000000	     24.39350550	      0.17328204	      1.22420670	     14.73049357	    -10.72150251	     71.41997814	     49.36558724	     88.39468203	      1.78766443	     -1.62846376	      7.59044253	    -13.69101782	     60.00039319	     54.23547332	     65.23677031	    -10.30538051	     -1.66070782
      0.05000000	      0.34733273	     -4.72269548	    103.76193542	      0.26740152	      0.73116876	      0.88698819	     -0.03281127	      1.16048639	    -15.98857705	      4.80229190	      0.08381581	     17.43195349	     13.99990020	      0.00000000	      1.48580426	     -0.46310585	      7.23739665	      4.50054781	      0.07854938	     17.70923555	     -2.95728878	      0.00000000	      0.20258199	      0.09347659	     -1.15403653	      0.37621501	      0.12432386	     -1.22616381	      0.33282195	      0.22727898	     -1.22616381	      0.23153095	      0.22727898	     -1.00978196	      0.18811763	      0.19061746	     -0.93765468	      0.11575535	      0.14479524	     -0.86552739	      1.44702289	      1.05742588	     -6.41840495	      0.00000000	      0.00000000	     24.04184222	      0.43765931	      2.13582203	     14.59132672	    -10.36984987	     70.57714617	     48.78935560	     87.73190285	      3.18553653	     -0.83769726	      8.57487258	    -13.80565465	     62.66057953	     53.82011086	     60.26125882	    -11.97462749	     -3.08422017
      0.06666667	      0.20815882	     -4.69210378	    103.98925847	      0.26711310	      0.73124578	      0.88666549	     -0.29796607	      1.09186645	    -14.66702473	      4.58260064	      0.07998147	     17.27988169	     12.03406896	      0.00000000	      1.51837362	     -0.45881235	      4.58760322	      4.67863840	      0.08165764	     18.46445385	      1.19843842	      0.00000000	      0.21066664	      0.07976289	     -1.25894782	      0.39122901	      0.10608465	     -1.33763206	      0.34610422	      0.19393550	     -1.33763206	      0.24077090	      0.19393550	     -1.10157934	      0.19562504	      0.16265249	     -1.02289510	      0.12037492	      0.12355272	     -0.94421086	      1.50477072	      0.90229380	     -7.00189009	      0.00000000	      0.00000000	     23.73135751	      0.55542096	      2.87583555	     14.82924477	     -9.88588833	     70.71230561	     47.99742066	     85.74607313	      4.00162294	     -0.32980584	      8.69885316	    -13.80725534	     63.26314713	     53.46189058	     58.05069519	    -12.61615270	     -3.96505309
